<svg width="310" height="205" viewBox="0 0 310 205" fill="none" xmlns="http://www.w3.org/2000/svg">
<rect x="8.72363" y="55.751" width="284.503" height="132.701" transform="rotate(-7.88125 8.72363 55.751)" fill="#AA702E"/>
<g clip-path="url(#clip0_1_533)">
<rect width="284.26" height="132.655" transform="translate(0 77.351) rotate(-15.79)" fill="#D99343"/>
<rect x="13.1579" y="84.7077" width="262.941" height="111.335" transform="rotate(-15.79 13.1579 84.7077)" stroke="white" stroke-width="4.73767"/>
</g>
<rect x="88.0259" y="118.768" width="30.7949" height="9.47535" transform="rotate(-15.79 88.0259 118.768)" fill="white"/>
<path d="M184.159 106.31C187.984 119.836 180.11 125.968 168.443 129.736L170.55 137.186L162.955 139.334L160.787 131.667C145.127 134.299 137.053 126.739 134.966 119.362C140.247 117.868 153.266 114.187 153.266 114.187C154.228 117.586 157.645 117.792 160.176 117.076C162.852 116.319 163.981 115.062 163.511 113.399C162.856 111.084 159.479 111.571 153.459 111.554C140.584 111.602 134.415 109.675 132.062 101.357C128.135 87.4696 137.733 81.631 145.815 78.7206L143.667 71.1259L151.262 68.9782L153.41 76.573C163.162 74.5963 174.029 76.2881 177.445 88.3674C171.514 90.0446 159.579 93.4195 159.579 93.4195C158.843 90.8156 156.481 89.9213 154.167 90.5758C151.924 91.2099 150.651 92.5074 151.183 94.388C151.919 96.9919 157.651 96.5428 162.752 96.3501C167.905 96.0647 180.662 93.9413 184.159 106.31Z" fill="white"/>
<rect x="193.98" y="88.806" width="30.7949" height="9.47535" transform="rotate(-15.79 193.98 88.806)" fill="white"/>
<defs>
<clipPath id="clip0_1_533">
<rect width="284.26" height="132.655" fill="white" transform="translate(0 77.351) rotate(-15.79)"/>
</clipPath>
</defs>
</svg>
