<svg width="297" height="334" viewBox="0 0 297 334" fill="none" xmlns="http://www.w3.org/2000/svg">
<path d="M169.274 21.8339C169.274 21.8339 151.994 26.7177 153.096 38.9667C154.825 58.1827 144.792 61.6227 144.792 61.6227" stroke="#FFE74B" stroke-width="6"/>
<path d="M189.756 66.3313C189.756 66.3313 172.476 71.2151 173.578 83.4641C175.308 102.68 165.274 106.12 165.274 106.12" stroke="#FFE74B" stroke-width="6"/>
<path d="M244.274 52.8338C244.274 52.8338 226.994 57.7176 228.096 69.9666C229.825 89.1826 219.792 92.6225 219.792 92.6225" stroke="#FFE74B" stroke-width="6"/>
<path d="M267.309 168.562C267.309 168.562 252.996 157.719 243.887 165.982C229.598 178.946 220.805 173.015 220.805 173.015" stroke="#FFE74B" stroke-width="6"/>
<path d="M230.182 131.037C230.182 131.037 215.869 120.194 206.76 128.458C192.471 141.422 183.678 135.49 183.678 135.49" stroke="#FFE74B" stroke-width="6"/>
<path d="M291 88.9999C291 88.9999 282.932 85.0924 277.238 88.8085C268.307 94.6381 263.323 92.5361 263.323 92.5361" stroke="#FFE74B" stroke-width="5"/>
<path d="M43.1184 233.516L112.873 64.9557L223.973 209.645L43.1184 233.516Z" fill="#9B393C"/>
<path d="M33.5701 228.533L103.325 59.9727L214.425 204.662L33.5701 228.533Z" fill="#E14C51"/>
<circle cx="105.918" cy="107.097" r="6" transform="rotate(5.7583 105.918 107.097)" fill="white" fill-opacity="0.21"/>
<circle cx="99.7222" cy="138.634" r="6" transform="rotate(5.7583 99.7222 138.634)" fill="white" fill-opacity="0.21"/>
<circle cx="124.663" cy="180.347" r="6" transform="rotate(5.7583 124.663 180.347)" fill="white" fill-opacity="0.21"/>
<circle cx="134.144" cy="146.126" r="6" transform="rotate(5.7583 134.144 146.126)" fill="white" fill-opacity="0.21"/>
<circle cx="165.155" cy="187.446" r="6" transform="rotate(5.7583 165.155 187.446)" fill="white" fill-opacity="0.21"/>
<circle cx="65.0489" cy="193.432" r="6" transform="rotate(5.7583 65.0489 193.432)" fill="white" fill-opacity="0.21"/>
<circle cx="90.5416" cy="169.871" r="6" transform="rotate(5.7583 90.5416 169.871)" fill="white" fill-opacity="0.21"/>
<circle cx="96.2857" cy="202.612" r="6" transform="rotate(5.7583 96.2857 202.612)" fill="white" fill-opacity="0.21"/>
</svg>
