<svg width="173" height="209" viewBox="0 0 173 209" fill="none" xmlns="http://www.w3.org/2000/svg">
<g clip-path="url(#clip0_1_544)">
<path d="M7 7H173V209H7V7Z" fill="#3065A5"/>
<path d="M0 0H166V202H0V0Z" fill="#60A3F3"/>
<rect x="16" y="178" width="134" height="11" fill="white"/>
<rect x="16" y="161" width="83" height="11" fill="white"/>
<path d="M57.8078 106.243V102.062H69.4317V114.374H63.8168V112.959C62.175 114.243 60.0078 115 57.2167 115C49.5332 115 44.2466 109.897 44.2466 102.852C44.2466 95.8068 49.5332 90.704 57.2167 90.704C64.1123 90.704 69.0048 95.1154 69.4317 100.646H60.6645C60.2376 99.7573 59.1869 99.0001 57.4794 99.0001C55.2794 99.0001 53.8018 100.646 53.8018 102.852C53.8018 105.058 54.8854 107.296 57.4794 107.362C58.563 107.395 59.3182 107.066 59.7779 106.605V106.243H57.8078Z" fill="white"/>
<path d="M32.6806 91.3293H41.4478V114.374H30.4806L24.997 102.918H24.7672V114.374H16V91.3293H27.2627L32.4508 102.786H32.6806V91.3293Z" fill="white"/>
<path d="M70.0469 55.6647H78.814V78.7096H70.0469V55.6647Z" fill="white"/>
<path d="M57.9887 55.6647H66.7559V78.7096H55.7887L50.3051 67.253H50.0753V78.7096H41.3081V55.6647H52.5708L57.7589 67.1213H57.9887V55.6647Z" fill="white"/>
<path d="M29.6269 78.7096L26.6717 72.5533C26.1134 72.5533 25.3911 72.5533 24.7672 72.5533V78.7096H16V55.6647C16 55.6647 27.5911 55.6647 27.7224 55.6647C34.3881 55.6647 37.6388 58.463 37.6388 64.1254C37.6388 67.1871 36.6866 69.3929 34.7821 70.7756L39.0179 78.7096H29.6269ZM26.8687 62.2489C26.3761 62.2489 25.5224 62.2489 24.7672 62.2489V65.969C25.5224 65.969 26.3761 65.969 26.8687 65.969C28.3134 65.969 29.1015 65.4752 29.1015 64.1254C29.1015 62.7428 28.3134 62.2489 26.8687 62.2489Z" fill="white"/>
<path d="M79.6088 43.0449L78.7551 39.3906H72.5163L71.6625 43.0449H62.2715L69.167 20H82.1043L88.9999 43.0449H79.6088ZM74.0924 32.5101H77.179L76.0954 27.8353H75.176L74.0924 32.5101Z" fill="white"/>
<path d="M59.9751 26.9135H49.4019V28.3949H59.0228V34.65H49.4019V36.1314H59.9751V43.0449H40.6348V20H59.9751V26.9135Z" fill="white"/>
<path d="M24.7672 35.2096H37.8358V43.0449H16V20H24.7672V35.2096Z" fill="white"/>
</g>
<defs>
<clipPath id="clip0_1_544">
<rect width="173" height="209" fill="white"/>
</clipPath>
</defs>
</svg>
