<svg width="164" height="140" viewBox="0 0 164 140" fill="none" xmlns="http://www.w3.org/2000/svg">
<path d="M163.617 139.5H6L25.7021 105.375L45.4042 71.25L65.1062 37.125L84.8083 3L104.51 37.125L124.212 71.25L143.915 105.375L163.617 139.5Z" fill="#21463A"/>
<path d="M118.212 68.25H39.4042L19.7021 102.375H137.915L118.212 68.25Z" fill="#60A3F3"/>
<path d="M39.4042 68.25H118.212L98.5104 34.125H59.1062L39.4042 68.25Z" fill="#E14C51"/>
<path d="M78.8083 0L59.1062 34.125H98.5104L78.8083 0Z" fill="#D99343"/>
<path d="M0 136.5H157.617L137.915 102.375H19.7021L0 136.5Z" fill="#67CB30"/>
<path d="M117.635 69.25L136.182 101.375H21.4341L39.9815 69.25H117.635ZM116.48 67.25H41.1362L59.6836 35.125H97.933L116.48 67.25ZM96.7783 33.125H60.8383L78.8083 2L96.7783 33.125ZM137.337 103.375L155.885 135.5H1.73205L20.2794 103.375H137.337Z" stroke="#0E231C" stroke-width="2"/>
</svg>
